<svg width="120" height="120" viewBox="0 0 120 120" fill="none" xmlns="http://www.w3.org/2000/svg">
<g filter="url(#filter0_d_3201_644)">
<circle cx="60" cy="56" r="40" fill="white"/>
</g>
<circle cx="60" cy="56" r="30" fill="#F0F5FB"/>
<path d="M78 65.8379C77.9999 66.705 77.668 67.5285 77.0664 68.1572L72.4727 72.9521C71.8347 73.6187 70.9369 74 70.0107 74H45.5938C43.6124 73.9999 42.0002 72.4017 42 70.4365V49.1846H78V65.8379ZM71.5029 65.1807C70.2242 65.1807 69.1777 66.2191 69.1777 67.4873V72.207C69.1777 72.399 69.4142 72.4929 69.5479 72.3535L70.6045 71.2441L75.3428 66.2686L76.0371 65.54C76.1661 65.4045 76.069 65.1807 75.8809 65.1807H71.5029ZM46.8311 43.375C46.8311 43.4756 46.8383 43.5741 46.8496 43.6719C46.9982 44.9488 48.0888 45.9441 49.4102 45.9443H49.5791C50.9007 45.9441 51.9911 44.9489 52.1396 43.6719C52.151 43.5741 52.1582 43.4756 52.1582 43.375V41.1455H67.418V43.375C67.418 43.4755 67.4252 43.5742 67.4365 43.6719C67.5851 44.949 68.6765 45.9443 69.998 45.9443H70.165C71.4869 45.9443 72.578 44.949 72.7266 43.6719C72.7379 43.5741 72.7451 43.4756 72.7451 43.375V41.1455H74.4062C76.3875 41.1455 78 42.751 78 44.7246V47.4365H42V44.7246C42 42.7514 43.612 41.1456 45.5938 41.1455H46.8311V43.375ZM49.6738 38C50.5019 38.0001 51.1752 38.6426 51.1758 39.4326L51.1768 43.5576C51.1765 44.3476 50.502 44.9902 49.6738 44.9902H49.5029C48.6746 44.9902 48.0007 44.3475 48 43.5576V39.4326C48.0003 38.6427 48.6739 38.0001 49.502 38H49.6738ZM70.1445 38C70.9727 38.0002 71.6459 38.6427 71.6465 39.4326L71.6475 43.5576C71.6472 44.3476 70.9729 44.9902 70.1445 44.9902H69.9736C69.1455 44.9902 68.4711 44.3475 68.4707 43.5576V39.4326C68.471 38.6426 69.1453 38 69.9736 38H70.1445Z" fill="white"/>
<path d="M78 65.8379C77.9999 66.705 77.668 67.5285 77.0664 68.1572L72.4727 72.9521C71.8347 73.6187 70.9369 74 70.0107 74H45.5938C43.6124 73.9999 42.0002 72.4017 42 70.4365V49.1846H78V65.8379ZM71.5029 65.1807C70.2242 65.1807 69.1777 66.2191 69.1777 67.4873V72.207C69.1777 72.399 69.4142 72.4929 69.5479 72.3535L70.6045 71.2441L75.3428 66.2686L76.0371 65.54C76.1661 65.4045 76.069 65.1807 75.8809 65.1807H71.5029ZM46.8311 43.375C46.8311 43.4756 46.8383 43.5741 46.8496 43.6719C46.9982 44.9488 48.0888 45.9441 49.4102 45.9443H49.5791C50.9007 45.9441 51.9911 44.9489 52.1396 43.6719C52.151 43.5741 52.1582 43.4756 52.1582 43.375V41.1455H67.418V43.375C67.418 43.4755 67.4252 43.5742 67.4365 43.6719C67.5851 44.949 68.6765 45.9443 69.998 45.9443H70.165C71.4869 45.9443 72.578 44.949 72.7266 43.6719C72.7379 43.5741 72.7451 43.4756 72.7451 43.375V41.1455H74.4062C76.3875 41.1455 78 42.751 78 44.7246V47.4365H42V44.7246C42 42.7514 43.612 41.1456 45.5938 41.1455H46.8311V43.375ZM49.6738 38C50.5019 38.0001 51.1752 38.6426 51.1758 39.4326L51.1768 43.5576C51.1765 44.3476 50.502 44.9902 49.6738 44.9902H49.5029C48.6746 44.9902 48.0007 44.3475 48 43.5576V39.4326C48.0003 38.6427 48.6739 38.0001 49.502 38H49.6738ZM70.1445 38C70.9727 38.0002 71.6459 38.6427 71.6465 39.4326L71.6475 43.5576C71.6472 44.3476 70.9729 44.9902 70.1445 44.9902H69.9736C69.1455 44.9902 68.4711 44.3475 68.4707 43.5576V39.4326C68.471 38.6426 69.1453 38 69.9736 38H70.1445Z" fill="url(#paint0_linear_3201_644)"/>
<defs>
<filter id="filter0_d_3201_644" x="0" y="0" width="120" height="120" filterUnits="userSpaceOnUse" color-interpolation-filters="sRGB">
<feFlood flood-opacity="0" result="BackgroundImageFix"/>
<feColorMatrix in="SourceAlpha" type="matrix" values="0 0 0 0 0 0 0 0 0 0 0 0 0 0 0 0 0 0 127 0" result="hardAlpha"/>
<feOffset dy="4"/>
<feGaussianBlur stdDeviation="10"/>
<feComposite in2="hardAlpha" operator="out"/>
<feColorMatrix type="matrix" values="0 0 0 0 0 0 0 0 0 0.027451 0 0 0 0 0.368627 0 0 0 0.1 0"/>
<feBlend mode="normal" in2="BackgroundImageFix" result="effect1_dropShadow_3201_644"/>
<feBlend mode="normal" in="SourceGraphic" in2="effect1_dropShadow_3201_644" result="shape"/>
</filter>
<linearGradient id="paint0_linear_3201_644" x1="41.0538" y1="86.8047" x2="77.7775" y2="75.9704" gradientUnits="userSpaceOnUse">
<stop stop-color="#0D748B"/>
<stop offset="1" stop-color="#1A0B73"/>
</linearGradient>
</defs>
</svg>
