<svg width="36" height="36" viewBox="0 0 36 36" fill="none" xmlns="http://www.w3.org/2000/svg">
<path d="M21.8369 5.71429C24.1071 5.71446 25.9736 7.59257 25.9736 9.8764V26.1235C25.9736 28.4076 24.1068 30.2854 21.8369 30.2856H4.13672C1.86668 30.2855 0 28.4074 0 26.1235V9.8764C0 7.59222 1.86668 5.71434 4.13672 5.71429H21.8369ZM33.1475 9.52679C33.4303 9.50523 33.7095 9.53633 33.9541 9.61664C34.4427 9.777 34.8117 10.0682 35.0977 10.392C35.6697 11.0396 35.9999 11.8328 36 12.7358V23.2621C35.9999 24.1438 35.6753 24.938 35.1064 25.5707C34.5374 26.2034 33.4793 26.6914 32.4648 26.3012L28.373 24.7289V11.892L32.3252 9.76019C32.5156 9.65774 32.7239 9.58979 32.9355 9.55316L33.1475 9.52679ZM4.80664 10.7582C4.48856 10.757 4.18299 10.8834 3.95703 11.1088C3.73143 11.3341 3.60396 11.6404 3.60254 11.9604V17.9946C3.6012 18.3166 3.72803 18.6262 3.9541 18.8539C4.18003 19.0811 4.48709 19.2087 4.80664 19.2075C5.1251 19.2061 5.4301 19.0775 5.6543 18.85C5.87848 18.6228 6.00427 18.315 6.00293 17.9946V11.9604C6.00153 11.642 5.87515 11.337 5.65137 11.1118C5.42741 10.8865 5.12325 10.7593 4.80664 10.7582Z" fill="white"/>
<path d="M21.8369 5.71429C24.1071 5.71446 25.9736 7.59257 25.9736 9.8764V26.1235C25.9736 28.4076 24.1068 30.2854 21.8369 30.2856H4.13672C1.86668 30.2855 0 28.4074 0 26.1235V9.8764C0 7.59222 1.86668 5.71434 4.13672 5.71429H21.8369ZM33.1475 9.52679C33.4303 9.50523 33.7095 9.53633 33.9541 9.61664C34.4427 9.777 34.8117 10.0682 35.0977 10.392C35.6697 11.0396 35.9999 11.8328 36 12.7358V23.2621C35.9999 24.1438 35.6753 24.938 35.1064 25.5707C34.5374 26.2034 33.4793 26.6914 32.4648 26.3012L28.373 24.7289V11.892L32.3252 9.76019C32.5156 9.65774 32.7239 9.58979 32.9355 9.55316L33.1475 9.52679ZM4.80664 10.7582C4.48856 10.757 4.18299 10.8834 3.95703 11.1088C3.73143 11.3341 3.60396 11.6404 3.60254 11.9604V17.9946C3.6012 18.3166 3.72803 18.6262 3.9541 18.8539C4.18003 19.0811 4.48709 19.2087 4.80664 19.2075C5.1251 19.2061 5.4301 19.0775 5.6543 18.85C5.87848 18.6228 6.00427 18.315 6.00293 17.9946V11.9604C6.00153 11.642 5.87515 11.337 5.65137 11.1118C5.42741 10.8865 5.12325 10.7593 4.80664 10.7582Z" fill="url(#paint0_linear_3201_616)"/>
<defs>
<linearGradient id="paint0_linear_3201_616" x1="-0.946152" y1="39.0253" x2="32.6895" y2="24.4865" gradientUnits="userSpaceOnUse">
<stop stop-color="#0D748B"/>
<stop offset="1" stop-color="#1A0B73"/>
</linearGradient>
</defs>
</svg>
