<svg width="40" height="40" viewBox="0 0 40 40" fill="none" xmlns="http://www.w3.org/2000/svg">
<rect width="40" height="40" rx="20" fill="#F0F5FB"/>
<g clip-path="url(#clip0_38_191)">
<path d="M18.3717 10.403C22.7727 10.403 26.3405 13.9707 26.3405 18.3717C26.3405 20.2477 25.6898 21.9703 24.6051 23.3317L29.5836 28.3112C29.9351 28.6626 29.9351 29.2322 29.5836 29.5836C29.2322 29.9351 28.6626 29.9351 28.3112 29.5836L23.3317 24.6051C21.9703 25.6898 20.2477 26.3405 18.3717 26.3405C13.9707 26.3405 10.403 22.7727 10.403 18.3717C10.403 13.9707 13.9707 10.403 18.3717 10.403ZM18.3717 12.2028C14.9648 12.2028 12.2028 14.9648 12.2028 18.3717C12.2028 21.7786 14.9648 24.5407 18.3717 24.5407C21.7786 24.5407 24.5406 21.7786 24.5406 18.3717C24.5406 14.9648 21.7786 12.2028 18.3717 12.2028Z" fill="white"/>
<path d="M18.3717 10.403C22.7727 10.403 26.3405 13.9707 26.3405 18.3717C26.3405 20.2477 25.6898 21.9703 24.6051 23.3317L29.5836 28.3112C29.9351 28.6626 29.9351 29.2322 29.5836 29.5836C29.2322 29.9351 28.6626 29.9351 28.3112 29.5836L23.3317 24.6051C21.9703 25.6898 20.2477 26.3405 18.3717 26.3405C13.9707 26.3405 10.403 22.7727 10.403 18.3717C10.403 13.9707 13.9707 10.403 18.3717 10.403ZM18.3717 12.2028C14.9648 12.2028 12.2028 14.9648 12.2028 18.3717C12.2028 21.7786 14.9648 24.5407 18.3717 24.5407C21.7786 24.5407 24.5406 21.7786 24.5406 18.3717C24.5406 14.9648 21.7786 12.2028 18.3717 12.2028Z" fill="url(#paint0_linear_38_191)"/>
</g>
<defs>
<linearGradient id="paint0_linear_38_191" x1="9.89192" y1="36.7634" x2="29.7272" y2="30.9115" gradientUnits="userSpaceOnUse">
<stop stop-color="#0D748B"/>
<stop offset="1" stop-color="#1A0B73"/>
</linearGradient>
<clipPath id="clip0_38_191">
<rect width="20" height="20" fill="white" transform="translate(10 10)"/>
</clipPath>
</defs>
</svg>
